<?xml version="1.0" standalone="no"?>
<!DOCTYPE svg PUBLIC "-//W3C//DTD SVG 20010904//EN"
 "http://www.w3.org/TR/2001/REC-SVG-20010904/DTD/svg10.dtd">
<svg version="1.0" xmlns="http://www.w3.org/2000/svg"
 width="920.000000pt" height="426.000000pt" viewBox="0 0 920.000000 426.000000"
 preserveAspectRatio="xMidYMid meet">

<g transform="translate(0.000000,426.000000) scale(0.100000,-0.100000)"
fill="#000000" stroke="none">
<path d="M4944 4048 c-35 -56 -32 -54 -47 -35 -8 11 -17 14 -25 8 -11 -7 -8
-17 13 -51 l27 -43 43 74 c24 40 42 76 39 81 -10 16 -24 7 -50 -34z"/>
<path d="M3637 4064 c-4 -4 -7 -13 -7 -21 0 -10 26 -13 116 -13 105 0 115 2
112 18 -3 15 -18 17 -108 20 -58 2 -109 0 -113 -4z"/>
<path d="M4130 4015 c0 -13 39 -15 301 -15 236 0 300 3 297 13 -4 9 -75 13
-301 15 -260 2 -297 0 -297 -13z"/>
<path d="M3580 3915 c0 -78 3 -95 15 -95 12 0 15 17 15 95 0 78 -3 95 -15 95
-12 0 -15 -17 -15 -95z"/>
<path d="M5280 3945 c0 -16 6 -25 15 -25 9 0 15 9 15 25 0 16 -6 25 -15 25 -9
0 -15 -9 -15 -25z"/>
<path d="M5360 3945 c0 -16 6 -25 15 -25 9 0 15 9 15 25 0 16 -6 25 -15 25 -9
0 -15 -9 -15 -25z"/>
<path d="M4130 3935 c0 -13 27 -15 185 -15 158 0 185 2 185 15 0 13 -27 15
-185 15 -158 0 -185 -2 -185 -15z"/>
<path d="M4942 3815 c-28 -46 -42 -56 -42 -30 0 17 -9 19 -27 7 -9 -6 -5 -19
13 -50 l26 -43 43 73 c24 40 41 76 38 81 -10 16 -25 5 -51 -38z"/>
<path d="M5870 3499 l0 -319 38 0 c70 0 112 -52 112 -140 l0 -50 300 0 300 0
0 303 0 302 -110 110 -110 110 0 -113 0 -112 -161 0 -160 0 2 113 1 112 -106
2 -106 1 0 -319z m78 294 l-48 -4 -3 -297 -2 -297 -3 303 -2 302 53 -2 52 -2
-47 -3z m110 0 c-10 -2 -28 -2 -40 0 -13 2 -5 4 17 4 22 1 32 -1 23 -4z m477
-133 c10 -11 16 -20 13 -20 -3 0 -13 9 -23 20 -10 11 -16 20 -13 20 3 0 13 -9
23 -20z m63 -91 c-3 -8 -7 -3 -11 10 -4 17 -3 21 5 13 5 -5 8 -16 6 -23z
m-306 -6 c-40 -2 -103 -2 -140 0 -37 2 -4 3 73 3 77 0 107 -2 67 -3z m305 -35
c-3 -8 -6 -5 -6 6 -1 11 2 17 5 13 3 -3 4 -12 1 -19z m0 -55 c-3 -10 -5 -4 -5
12 0 17 2 24 5 18 2 -7 2 -21 0 -30z m-290 -42 c26 -12 52 -35 69 -60 51 -78
19 -178 -71 -221 -70 -34 -152 -8 -195 62 -25 42 -25 54 0 61 11 3 20 12 20
21 0 9 -8 16 -20 16 -53 0 20 110 86 130 44 13 65 11 111 -9z m290 -18 c-3
-10 -5 -4 -5 12 0 17 2 24 5 18 2 -7 2 -21 0 -30z m0 -45 c-3 -8 -6 -5 -6 6
-1 11 2 17 5 13 3 -3 4 -12 1 -19z m0 -55 c-3 -10 -5 -4 -5 12 0 17 2 24 5 18
2 -7 2 -21 0 -30z m0 -60 c-3 -10 -5 -4 -5 12 0 17 2 24 5 18 2 -7 2 -21 0
-30z m0 -60 c-3 -10 -5 -4 -5 12 0 17 2 24 5 18 2 -7 2 -21 0 -30z m0 -60 c-3
-10 -5 -4 -5 12 0 17 2 24 5 18 2 -7 2 -21 0 -30z m-329 -20 c-10 -2 -28 -2
-40 0 -13 2 -5 4 17 4 22 1 32 -1 23 -4z m329 -40 c-3 -10 -5 -4 -5 12 0 17 2
24 5 18 2 -7 2 -21 0 -30z m-550 -50 c-3 -10 -5 -2 -5 17 0 19 2 27 5 18 2
-10 2 -26 0 -35z m550 -5 c-3 -7 -5 -2 -5 12 0 14 2 19 5 13 2 -7 2 -19 0 -25z"/>
<path d="M5244 3801 c-2 -2 -4 -28 -4 -58 l0 -53 95 0 96 0 -3 56 -3 56 -88 1
c-49 1 -91 0 -93 -2z m146 -51 c0 -18 -7 -20 -55 -20 -48 0 -55 2 -55 20 0 18
7 20 55 20 48 0 55 -2 55 -20z"/>
<path d="M3323 3785 c0 -12 20 -15 119 -15 98 0 118 3 118 15 0 12 -20 15
-118 15 -99 0 -119 -3 -119 -15z"/>
<path d="M3630 3785 c0 -12 19 -15 115 -15 96 0 115 3 115 15 0 12 -19 15
-115 15 -96 0 -115 -3 -115 -15z"/>
<path d="M4130 3785 c0 -13 40 -15 300 -15 260 0 300 2 300 15 0 13 -40 15
-300 15 -260 0 -300 -2 -300 -15z"/>
<path d="M3580 3652 c0 -81 3 -99 15 -99 12 0 15 18 15 99 0 80 -3 98 -15 98
-12 0 -15 -18 -15 -98z"/>
<path d="M6236 3743 c-3 -3 -6 -21 -6 -40 0 -23 5 -33 15 -33 10 0 15 10 15
34 0 34 -11 52 -24 39z"/>
<path d="M6150 3705 c0 -24 5 -35 15 -35 10 0 15 11 15 35 0 24 -5 35 -15 35
-10 0 -15 -11 -15 -35z"/>
<path d="M2577 3724 c-4 -4 -7 -13 -7 -21 0 -10 26 -13 116 -13 105 0 115 2
112 18 -3 15 -18 17 -109 20 -58 1 -108 -1 -112 -4z"/>
<path d="M4130 3708 c0 -16 12 -18 110 -18 89 0 110 3 110 14 0 12 -22 15
-110 18 -99 3 -110 1 -110 -14z"/>
<path d="M1860 3368 l0 -298 260 0 260 0 0 75 0 75 35 0 35 0 0 113 0 112
-108 108 -108 108 -187 2 -187 2 0 -297z m263 -281 l242 -2 -247 -3 -248 -2 2
288 3 287 2 -282 3 -283 243 -3z m259 408 l57 -60 -105 3 -104 3 -1 40 c0 21
-1 59 -1 84 0 82 -1 81 50 34 26 -24 73 -71 104 -104z m55 -137 c-3 -8 -6 -5
-6 6 -1 11 2 17 5 13 3 -3 4 -12 1 -19z m-80 -200 c-2 -13 -4 -5 -4 17 -1 22
1 32 4 23 2 -10 2 -28 0 -40z m0 -50 c-3 -8 -6 -5 -6 6 -1 11 2 17 5 13 3 -3
4 -12 1 -19z"/>
<path d="M2572 3633 c3 -16 16 -18 113 -18 97 0 110 2 113 18 3 15 -7 17 -113
17 -106 0 -116 -2 -113 -17z"/>
<path d="M4943 3586 c-29 -47 -43 -57 -43 -31 0 17 -9 19 -27 7 -9 -6 -5 -19
14 -51 l26 -43 38 68 c42 76 45 87 30 92 -6 2 -23 -17 -38 -42z"/>
<path d="M2570 3555 c0 -12 19 -15 115 -15 96 0 115 3 115 15 0 12 -19 15
-115 15 -96 0 -115 -3 -115 -15z"/>
<path d="M4130 3555 c0 -13 40 -15 300 -15 260 0 300 2 300 15 0 13 -40 15
-300 15 -260 0 -300 -2 -300 -15z"/>
<path d="M3630 3515 c0 -12 19 -15 115 -15 96 0 115 3 115 15 0 12 -19 15
-115 15 -96 0 -115 -3 -115 -15z"/>
<path d="M4130 3482 c0 -18 13 -19 222 -18 204 1 223 2 226 19 3 16 -13 17
-222 17 -213 0 -226 -1 -226 -18z"/>
<path d="M5650 3405 c0 -8 7 -15 15 -15 8 0 15 7 15 15 0 8 -7 15 -15 15 -8 0
-15 -7 -15 -15z"/>
<path d="M5556 3402 c-2 -4 -1 -14 4 -22 7 -11 12 -12 21 -3 6 6 8 16 5 22 -8
13 -23 14 -30 3z"/>
<path d="M5736 3383 c-12 -12 -6 -33 9 -33 8 0 15 6 15 14 0 17 -14 28 -24 19z"/>
<path d="M3958 3273 c0 -60 -1 -117 -2 -128 -1 -19 6 -20 132 -23 l132 -3 0
-74 0 -74 -92 -3 -92 -3 -1 -35 0 -35 -62 -3 -63 -3 0 41 0 40 -202 -2 -203
-3 -3 -93 -3 -92 208 2 208 3 0 32 c0 30 3 33 41 39 66 10 79 4 79 -36 l1 -35
92 -3 92 -3 0 -94 c0 -110 -9 -118 -64 -60 -42 44 -94 48 -131 10 -14 -13 -25
-29 -25 -35 0 -6 -26 -10 -62 -10 -60 0 -64 2 -91 35 -23 30 -34 35 -68 35
-52 0 -89 -34 -89 -84 0 -48 8 -65 41 -82 29 -15 29 -15 29 -113 0 -94 -1 -99
-20 -94 -15 4 -20 14 -20 39 l0 34 -90 0 -90 0 0 -90 0 -90 90 0 90 0 0 35 0
35 60 0 60 0 0 -35 0 -35 89 0 90 0 3 37 3 38 95 -1 95 -1 3 -96 3 -97 -191 0
-190 0 0 -95 0 -95 390 0 390 0 0 95 0 95 -185 0 -186 0 3 97 3 98 90 -1 90 0
3 -37 3 -37 90 0 89 0 0 35 0 35 75 0 75 0 0 -35 0 -35 90 0 90 0 0 90 0 90
-90 0 -90 0 0 -41 c0 -38 -1 -40 -27 -37 l-28 3 0 90 c0 71 3 89 14 87 17 -4
57 23 70 46 12 23 -19 117 -45 137 -31 24 -91 19 -119 -10 -14 -13 -25 -29
-25 -35 0 -6 -27 -10 -65 -10 -59 0 -66 2 -76 24 -13 28 -48 46 -88 46 -32 0
-81 -34 -81 -56 0 -8 -10 -14 -25 -14 -25 0 -25 0 -25 95 l0 95 95 0 95 0 0
40 0 41 63 -3 62 -3 1 -35 0 -35 202 -3 202 -2 0 95 0 95 -199 0 -200 0 -3
-37 -3 -38 -62 -3 -63 -3 0 41 0 40 -95 0 -95 0 0 75 0 75 135 0 135 0 0 130
0 130 -280 0 -280 0 -2 -107z m532 -18 l0 -95 -250 0 -250 0 0 95 0 95 250 0
250 0 0 -95z m-616 -343 c0 -12 -1 -38 -2 -57 l-2 -35 -165 0 -165 0 0 58 0
57 167 -1 c166 0 168 0 167 -22z m534 -35 l3 -57 -170 0 -169 0 -4 51 c-1 27
0 53 4 57 4 4 80 7 170 7 l163 -1 3 -57z m530 0 l3 -57 -171 0 -170 0 0 58 0
57 167 -1 168 0 3 -57z m-1109 -281 c12 -25 11 -31 -6 -55 -25 -32 -47 -37
-78 -17 -50 33 -20 110 39 104 23 -2 35 -11 45 -32z m294 27 c4 -4 -6 -12 -23
-19 -18 -8 -36 -26 -44 -44 -7 -17 -15 -27 -19 -23 -13 12 -7 56 10 75 16 18
63 25 76 11z m311 -15 c9 -12 16 -29 16 -37 0 -21 -40 -61 -62 -61 -25 0 -58
35 -58 62 0 53 74 79 104 36z m304 4 c2 -7 -2 -10 -12 -6 -20 8 -68 -40 -60
-60 3 -9 2 -16 -4 -16 -25 0 -29 56 -5 82 19 21 74 21 81 0z m-628 -26 c0 -2
-8 -10 -17 -17 -16 -13 -17 -12 -4 4 13 16 21 21 21 13z m605 -6 c-3 -5 -12
-10 -18 -10 -7 0 -6 4 3 10 19 12 23 12 15 0z m-709 -50 c12 -19 36 -37 72
-51 l53 -22 27 20 c15 11 29 33 32 49 5 27 9 29 52 32 43 3 48 1 62 -26 36
-69 139 -67 166 4 8 21 16 24 64 24 52 0 58 -3 101 -45 l45 -46 0 -95 0 -95
-27 3 c-24 3 -28 8 -31 41 l-3 37 -90 0 -89 0 0 -35 0 -35 -210 0 -210 0 0 35
0 35 -89 0 -90 0 -3 -37 c-2 -30 -7 -38 -23 -38 -18 0 -20 8 -23 98 -3 96 -3
97 23 107 14 5 34 23 43 40 16 28 21 30 74 30 52 0 58 -2 74 -30z m681 8 c-3
-8 -6 -5 -6 6 -1 11 2 17 5 13 3 -3 4 -12 1 -19z m-513 -33 c-4 -8 -11 -15
-16 -15 -6 0 -5 6 2 15 7 8 14 15 16 15 2 0 1 -7 -2 -15z m606 1 c0 -2 -8 -10
-17 -17 -16 -13 -17 -12 -4 4 13 16 21 21 21 13z m-1090 -236 l0 -60 -60 0
-60 0 0 60 0 60 60 0 60 0 0 -60z m295 0 l0 -55 -57 -3 -58 -3 0 61 0 61 58
-3 57 -3 0 -55z m605 0 l0 -60 -60 0 -60 0 0 60 0 60 60 0 60 0 0 -60z m330 0
l0 -60 -55 0 -55 0 0 60 0 60 55 0 55 0 0 -60z m-332 -302 l3 -58 -361 0 -360
0 0 60 0 60 358 -2 357 -3 3 -57z"/>
<path d="M3581 2861 c1 -23 2 -24 7 -5 5 14 14 20 29 19 12 -1 20 2 18 5 -3 4
-16 8 -30 8 -21 0 -25 -5 -24 -27z"/>
<path d="M3706 2882 c-3 -5 1 -9 9 -9 8 0 12 4 9 9 -3 4 -7 8 -9 8 -2 0 -6 -4
-9 -8z"/>
<path d="M3746 2882 c-3 -5 1 -9 9 -9 8 0 12 4 9 9 -3 4 -7 8 -9 8 -2 0 -6 -4
-9 -8z"/>
<path d="M3835 2880 c-3 -6 1 -7 9 -4 18 7 21 14 7 14 -6 0 -13 -4 -16 -10z"/>
<path d="M3307 3353 c-4 -3 -7 -16 -7 -27 0 -20 5 -21 160 -21 126 0 161 3
165 14 11 29 -44 57 -60 31 -3 -6 -50 -10 -105 -10 -55 0 -102 4 -105 10 -7
11 -38 13 -48 3z m17 -14 c-3 -6 0 -15 7 -20 9 -6 10 -9 2 -9 -15 0 -26 17
-18 30 3 6 8 10 11 10 3 0 2 -5 -2 -11z m284 -12 c2 -11 -3 -17 -15 -16 -10 0
-13 3 -5 6 6 2 12 9 12 15 0 6 -7 7 -16 4 -9 -3 -12 -2 -9 5 9 14 29 6 33 -14z"/>
<path d="M5495 3340 c-7 -12 2 -30 16 -30 12 0 12 27 0 35 -5 3 -12 1 -16 -5z"/>
<path d="M5770 3285 c0 -8 7 -15 15 -15 8 0 15 7 15 15 0 8 -7 15 -15 15 -8 0
-15 -7 -15 -15z"/>
<path d="M6700 3255 c0 -8 7 -15 15 -15 8 0 15 7 15 15 0 8 -7 15 -15 15 -8 0
-15 -7 -15 -15z"/>
<path d="M6817 3263 c-13 -12 -7 -23 13 -23 11 0 20 7 20 15 0 15 -21 21 -33
8z"/>
<path d="M6927 3264 c-9 -10 2 -24 19 -24 8 0 14 7 14 15 0 15 -21 21 -33 9z"/>
<path d="M5320 3240 c0 -5 7 -10 15 -10 8 0 15 5 15 10 0 6 -7 10 -15 10 -8 0
-15 -4 -15 -10z"/>
<path d="M5470 3235 c0 -8 7 -15 15 -15 8 0 15 7 15 15 0 8 -7 15 -15 15 -8 0
-15 -7 -15 -15z"/>
<path d="M5774 3199 c-8 -14 11 -33 25 -25 6 4 11 14 11 22 0 16 -26 19 -36 3z"/>
<path d="M7132 3175 c1 -27 6 -35 20 -35 14 0 18 8 18 35 0 28 -4 35 -20 35
-16 0 -19 -6 -18 -35z"/>
<path d="M2780 3176 c32 -38 180 -186 186 -186 9 0 1 9 -103 110 -59 58 -96
92 -83 76z"/>
<path d="M5320 3155 c0 -8 9 -15 20 -15 11 0 20 7 20 15 0 8 -9 15 -20 15 -11
0 -20 -7 -20 -15z"/>
<path d="M5463 3154 c-7 -20 18 -38 29 -21 11 18 10 24 -7 31 -9 3 -18 -1 -22
-10z"/>
<path d="M6964 3136 c-11 -29 44 -74 60 -48 3 5 -8 22 -24 37 -26 25 -30 26
-36 11z"/>
<path d="M7300 3125 c-19 -20 -21 -28 -12 -37 10 -10 18 -7 38 13 21 21 23 28
11 37 -11 9 -19 6 -37 -13z"/>
<path d="M5390 3106 c0 -8 7 -16 15 -20 10 -4 15 1 15 14 0 11 -7 20 -15 20
-8 0 -15 -6 -15 -14z"/>
<path d="M5777 3114 c-14 -15 -6 -34 14 -34 14 0 19 5 17 17 -3 18 -20 27 -31
17z"/>
<path d="M7130 3015 c0 -47 4 -85 8 -85 13 0 136 42 144 49 4 3 4 12 -1 19 -6
10 -16 9 -50 -3 -24 -8 -47 -15 -52 -15 -5 0 -9 27 -9 60 0 53 -2 60 -20 60
-18 0 -20 -7 -20 -85z"/>
<path d="M2460 3030 c0 -20 5 -21 113 -18 92 2 112 6 112 18 0 12 -20 16 -112
18 -108 3 -113 2 -113 -18z"/>
<path d="M5770 3005 c0 -8 9 -15 20 -15 11 0 20 7 20 15 0 8 -9 15 -20 15 -11
0 -20 -7 -20 -15z"/>
<path d="M2460 2950 c0 -20 5 -21 112 -18 98 3 113 5 116 21 3 15 -7 17 -112
17 -110 0 -116 -1 -116 -20z"/>
<path d="M6890 2950 c0 -16 7 -20 35 -20 28 0 35 4 35 20 0 16 -7 20 -35 20
-28 0 -35 -4 -35 -20z"/>
<path d="M7340 2949 c0 -17 5 -20 37 -17 27 2 39 8 41 21 3 14 -4 17 -37 17
-35 0 -41 -3 -41 -21z"/>
<path d="M5770 2915 c0 -8 9 -15 20 -15 11 0 20 7 20 15 0 8 -9 15 -20 15 -11
0 -20 -7 -20 -15z"/>
<path d="M2460 2875 c0 -12 19 -15 115 -15 96 0 115 3 115 15 0 12 -19 15
-115 15 -96 0 -115 -3 -115 -15z"/>
<path d="M5266 2875 c5 -13 38 -15 210 -15 177 0 203 2 198 15 -5 13 -38 15
-210 15 -177 0 -203 -2 -198 -15z"/>
<path d="M5773 2825 c-3 -9 -3 -18 0 -22 10 -10 37 6 37 22 0 20 -29 20 -37 0z"/>
<path d="M2041 2804 c-25 -20 -31 -34 -31 -64 0 -30 6 -44 31 -64 35 -30 58
-32 98 -11 32 16 41 33 41 75 0 42 -9 59 -41 75 -40 21 -63 19 -98 -11z m72
-1 c-7 -2 -21 -2 -30 0 -10 3 -4 5 12 5 17 0 24 -2 18 -5z m46 -37 c-3 -3 -11
5 -18 17 -13 21 -12 21 5 5 10 -10 16 -20 13 -22z m-122 -18 c-3 -8 -6 -5 -6
6 -1 11 2 17 5 13 3 -3 4 -12 1 -19z m109 -56 c-17 -16 -18 -16 -5 5 7 12 15
20 18 17 3 -2 -3 -12 -13 -22z m-81 -10 c-3 -3 -11 0 -18 7 -9 10 -8 11 6 5
10 -3 15 -9 12 -12z"/>
<path d="M6976 2801 c-24 -25 -25 -29 -10 -35 12 -5 26 1 41 17 20 20 22 26
10 35 -11 9 -19 6 -41 -17z"/>
<path d="M7289 2814 c-10 -13 -8 -19 13 -40 20 -20 27 -23 35 -12 9 10 5 20
-12 40 -20 24 -25 25 -36 12z"/>
<path d="M3935 2809 c-4 -6 -5 -12 -2 -15 2 -3 7 2 10 11 7 17 1 20 -8 4z"/>
<path d="M5267 2814 c-3 -3 -3 -12 0 -20 8 -21 398 -21 406 0 3 8 3 17 0 20
-8 8 -398 8 -406 0z"/>
<path d="M1635 2780 c-12 -20 6 -51 28 -48 31 4 31 52 0 56 -11 2 -24 -2 -28
-8z m45 -20 c0 -21 -24 -28 -35 -10 -8 14 3 30 21 30 8 0 14 -9 14 -20z"/>
<path d="M3663 2753 c48 -2 126 -2 175 0 48 1 8 3 -88 3 -96 0 -136 -2 -87 -3z"/>
<path d="M6252 2743 c1 -10 -2 -30 -5 -46 -7 -26 -6 -27 20 -21 37 9 36 7 17
48 -19 38 -34 47 -32 19z"/>
<path d="M7130 2725 c0 -28 4 -35 20 -35 16 0 20 7 20 35 0 28 -4 35 -20 35
-16 0 -20 -7 -20 -35z"/>
<path d="M5266 2725 c-5 -13 22 -15 203 -15 178 0 208 2 208 15 0 13 -29 15
-203 15 -170 0 -203 -2 -208 -15z"/>
<path d="M5770 2725 c0 -8 9 -15 20 -15 11 0 20 7 20 15 0 8 -9 15 -20 15 -11
0 -20 -7 -20 -15z"/>
<path d="M6566 2678 c-8 -64 -36 -781 -31 -786 2 -3 10 -2 18 1 10 4 16 66 26
283 6 154 15 339 18 412 5 117 4 132 -10 132 -11 0 -17 -12 -21 -42z"/>
<path d="M6802 2662 c-24 -49 -25 -52 -6 -51 11 0 14 3 7 5 -7 3 -9 12 -6 20
9 23 23 16 23 -11 0 -14 4 -25 9 -25 8 0 6 14 -12 82 -1 4 -8 -5 -15 -20z"/>
<path d="M7360 2665 c0 -8 8 -15 18 -15 10 0 19 7 19 15 0 8 -9 15 -19 15 -10
0 -18 -7 -18 -15z"/>
<path d="M5266 2645 c5 -13 37 -15 204 -15 167 0 199 2 204 15 5 13 -22 15
-204 15 -182 0 -209 -2 -204 -15z"/>
<path d="M5770 2635 c0 -8 9 -15 20 -15 11 0 20 7 20 15 0 8 -9 15 -20 15 -11
0 -20 -7 -20 -15z"/>
<path d="M5266 2582 c-13 -22 23 -27 204 -27 181 0 217 5 204 27 -3 4 -95 8
-204 8 -109 0 -201 -4 -204 -8z"/>
<path d="M6293 2558 c-46 -7 -63 -14 -63 -25 0 -9 16 -97 35 -197 19 -99 45
-239 57 -311 l23 -130 73 -3 c47 -2 72 1 72 8 0 6 -7 41 -15 78 -14 69 -105
571 -105 585 0 4 -3 6 -7 6 -5 -1 -36 -6 -70 -11z m-36 -60 c-3 -7 -5 -2 -5
12 0 14 2 19 5 13 2 -7 2 -19 0 -25z m100 0 c-3 -7 -5 -2 -5 12 0 14 2 19 5
13 2 -7 2 -19 0 -25z m-90 -50 c-3 -7 -5 -2 -5 12 0 14 2 19 5 13 2 -7 2 -19
0 -25z m100 -10 c-3 -7 -5 -2 -5 12 0 14 2 19 5 13 2 -7 2 -19 0 -25z m-90
-50 c-3 -7 -5 -2 -5 12 0 14 2 19 5 13 2 -7 2 -19 0 -25z m10 -60 c-3 -7 -5
-2 -5 12 0 14 2 19 5 13 2 -7 2 -19 0 -25z m10 -60 c-3 -7 -5 -2 -5 12 0 14 2
19 5 13 2 -7 2 -19 0 -25z m10 -60 c-3 -8 -6 -5 -6 6 -1 11 2 17 5 13 3 -3 4
-12 1 -19z m110 -10 c-3 -7 -5 -2 -5 12 0 14 2 19 5 13 2 -7 2 -19 0 -25z
m-100 -50 c-3 -8 -6 -5 -6 6 -1 11 2 17 5 13 3 -3 4 -12 1 -19z m110 -10 c-3
-8 -6 -5 -6 6 -1 11 2 17 5 13 3 -3 4 -12 1 -19z m10 -60 c-3 -7 -5 -2 -5 12
0 14 2 19 5 13 2 -7 2 -19 0 -25z m10 -60 c-3 -7 -5 -2 -5 12 0 14 2 19 5 13
2 -7 2 -19 0 -25z m-90 -50 c-3 -7 -5 -2 -5 12 0 14 2 19 5 13 2 -7 2 -19 0
-25z m43 -54 c0 -2 -9 -4 -20 -4 -11 0 -20 4 -20 9 0 5 9 7 20 4 11 -3 20 -7
20 -9z m67 0 c-3 -3 -12 -4 -19 -1 -8 3 -5 6 6 6 11 1 17 -2 13 -5z"/>
<path d="M7360 2556 c0 -10 9 -16 21 -16 24 0 21 23 -4 28 -10 2 -17 -3 -17
-12z"/>
<path d="M5780 2550 c-12 -7 -12 -12 -2 -22 9 -9 15 -9 24 0 16 16 -2 34 -22
22z"/>
<path d="M1732 2498 c6 -18 28 -21 28 -4 0 9 -7 16 -16 16 -9 0 -14 -5 -12
-12z"/>
<path d="M1830 2495 c0 -8 7 -15 15 -15 8 0 15 7 15 15 0 8 -7 15 -15 15 -8 0
-15 -7 -15 -15z"/>
<path d="M1920 2495 c0 -8 7 -15 15 -15 8 0 15 7 15 15 0 8 -7 15 -15 15 -8 0
-15 -7 -15 -15z"/>
<path d="M2010 2494 c0 -9 7 -14 17 -12 25 5 28 28 4 28 -12 0 -21 -6 -21 -16z"/>
<path d="M2110 2495 c0 -8 7 -15 15 -15 8 0 15 7 15 15 0 8 -7 15 -15 15 -8 0
-15 -7 -15 -15z"/>
<path d="M2200 2495 c0 -8 7 -15 15 -15 8 0 15 7 15 15 0 8 -7 15 -15 15 -8 0
-15 -7 -15 -15z"/>
<path d="M2295 2501 c-3 -5 -1 -12 5 -16 12 -7 30 2 30 16 0 12 -27 12 -35 0z"/>
<path d="M2390 2495 c0 -8 7 -15 15 -15 8 0 15 7 15 15 0 8 -7 15 -15 15 -8 0
-15 -7 -15 -15z"/>
<path d="M2480 2495 c0 -8 7 -15 15 -15 8 0 15 7 15 15 0 8 -7 15 -15 15 -8 0
-15 -7 -15 -15z"/>
<path d="M2573 2498 c2 -7 10 -13 17 -13 7 0 15 6 18 13 2 7 -5 12 -18 12 -13
0 -20 -5 -17 -12z"/>
<path d="M2670 2495 c0 -8 7 -15 15 -15 8 0 15 7 15 15 0 8 -7 15 -15 15 -8 0
-15 -7 -15 -15z"/>
<path d="M2760 2495 c0 -8 7 -15 15 -15 8 0 15 7 15 15 0 8 -7 15 -15 15 -8 0
-15 -7 -15 -15z"/>
<path d="M2855 2501 c-3 -5 -1 -12 5 -16 12 -7 30 2 30 16 0 12 -27 12 -35 0z"/>
<path d="M2950 2495 c0 -8 7 -15 15 -15 8 0 15 7 15 15 0 8 -7 15 -15 15 -8 0
-15 -7 -15 -15z"/>
<path d="M3040 2495 c0 -8 7 -15 15 -15 8 0 15 7 15 15 0 8 -7 15 -15 15 -8 0
-15 -7 -15 -15z"/>
<path d="M3132 2498 c7 -19 38 -22 38 -4 0 10 -9 16 -21 16 -12 0 -19 -5 -17
-12z"/>
<path d="M3230 2495 c0 -8 7 -15 15 -15 8 0 15 7 15 15 0 8 -7 15 -15 15 -8 0
-15 -7 -15 -15z"/>
<path d="M3320 2495 c0 -8 7 -15 15 -15 8 0 15 7 15 15 0 8 -7 15 -15 15 -8 0
-15 -7 -15 -15z"/>
<path d="M5270 2495 c0 -12 14 -15 70 -15 56 0 70 3 70 15 0 12 -14 15 -70 15
-56 0 -70 -3 -70 -15z"/>
<path d="M6716 2489 c-13 -38 -38 -191 -32 -196 3 -4 6 -2 6 3 0 5 9 52 19
104 11 52 18 97 15 99 -2 2 -6 -2 -8 -10z"/>
<path d="M6760 2485 c0 -11 -101 -561 -106 -577 -4 -14 0 -18 19 -18 23 0 25
5 56 178 18 97 41 222 51 277 25 131 25 145 0 145 -11 0 -20 -2 -20 -5z"/>
<path d="M6836 2455 c4 -8 8 -15 10 -15 2 0 4 7 4 15 0 8 -4 15 -10 15 -5 0
-7 -7 -4 -15z"/>
<path d="M5770 2445 c0 -8 9 -15 20 -15 11 0 20 7 20 15 0 8 -9 15 -20 15 -11
0 -20 -7 -20 -15z"/>
<path d="M7367 2453 c-4 -3 -7 -12 -7 -20 0 -17 26 -17 33 1 8 21 -11 35 -26
19z"/>
<path d="M6825 2394 c-4 -22 -11 -56 -15 -76 -4 -21 -5 -38 -1 -38 8 0 34 141
27 147 -3 3 -8 -12 -11 -33z"/>
<path d="M1735 2410 c-8 -13 4 -32 16 -25 12 8 12 35 0 35 -6 0 -13 -4 -16
-10z"/>
<path d="M3322 2403 c5 -25 28 -28 28 -4 0 12 -6 21 -16 21 -9 0 -14 -7 -12
-17z"/>
<path d="M1892 2378 c-7 -7 -12 -21 -12 -33 0 -29 19 -45 52 -45 36 0 56 36
39 69 -13 23 -59 29 -79 9z"/>
<path d="M5770 2355 c0 -8 9 -15 20 -15 11 0 20 7 20 15 0 8 -9 15 -20 15 -11
0 -20 -7 -20 -15z"/>
<path d="M2030 2345 c0 -12 13 -15 60 -15 47 0 60 3 60 15 0 12 -13 15 -60 15
-47 0 -60 -3 -60 -15z"/>
<path d="M2420 2345 c0 -13 8 -16 38 -13 20 2 37 8 37 13 0 6 -17 11 -37 13
-30 3 -38 0 -38 -13z"/>
<path d="M2577 2354 c-16 -17 -5 -25 31 -22 20 2 37 8 37 13 0 12 -57 19 -68
9z"/>
<path d="M2725 2350 c-3 -5 0 -13 9 -16 21 -8 61 -1 61 11 0 14 -62 19 -70 5z"/>
<path d="M2880 2345 c0 -10 11 -15 35 -15 24 0 35 5 35 15 0 10 -11 15 -35 15
-24 0 -35 -5 -35 -15z"/>
<path d="M3030 2345 c0 -10 11 -15 35 -15 24 0 35 5 35 15 0 10 -11 15 -35 15
-24 0 -35 -5 -35 -15z"/>
<path d="M7360 2326 c0 -10 9 -16 21 -16 24 0 21 23 -4 28 -10 2 -17 -3 -17
-12z"/>
<path d="M1730 2305 c0 -8 7 -15 15 -15 8 0 15 7 15 15 0 8 -7 15 -15 15 -8 0
-15 -7 -15 -15z"/>
<path d="M3320 2305 c0 -8 7 -15 15 -15 8 0 15 7 15 15 0 8 -7 15 -15 15 -8 0
-15 -7 -15 -15z"/>
<path d="M5772 2263 c2 -10 10 -18 18 -18 8 0 16 8 18 18 2 12 -3 17 -18 17
-15 0 -20 -5 -18 -17z"/>
<path d="M6676 2272 c-3 -5 -8 -29 -10 -53 -5 -43 -4 -40 14 29 8 31 7 41 -4
24z"/>
<path d="M6792 2213 c-16 -84 -25 -159 -19 -153 7 7 39 202 34 207 -2 2 -9
-22 -15 -54z"/>
<path d="M7360 2132 c0 -121 1 -128 20 -129 19 -2 20 4 20 128 0 122 -1 129
-20 129 -19 0 -20 -7 -20 -128z"/>
<path d="M2089 2221 c-1 -3 -2 -28 -3 -56 l-1 -50 -40 -6 -40 -6 38 -2 37 -1
0 -50 c0 -65 0 -65 -37 -66 -18 0 -36 -3 -40 -7 -3 -4 28 -7 70 -7 l77 0 0
128 0 128 -30 0 c-16 0 -31 -2 -31 -5z m38 -17 c-3 -3 -12 -4 -19 -1 -8 3 -5
6 6 6 11 1 17 -2 13 -5z"/>
<path d="M3333 2223 c-18 -7 -16 -33 2 -33 8 0 15 9 15 20 0 11 -1 20 -2 19
-2 0 -9 -3 -15 -6z"/>
<path d="M1730 2205 c0 -8 6 -15 14 -15 8 0 16 7 20 15 4 10 -1 15 -14 15 -11
0 -20 -7 -20 -15z"/>
<path d="M5770 2165 c0 -8 9 -15 20 -15 11 0 20 7 20 15 0 8 -9 15 -20 15 -11
0 -20 -7 -20 -15z"/>
<path d="M6652 2140 c0 -19 2 -27 5 -17 2 9 2 25 0 35 -3 9 -5 1 -5 -18z"/>
<path d="M2899 2120 c-58 -26 -70 -28 -102 -18 -35 11 -38 9 -112 -46 l-75
-56 -39 20 -40 20 -75 -27 c-41 -14 -73 -30 -70 -35 3 -4 165 -8 360 -8 l354
0 0 73 0 73 -53 17 c-68 21 -69 21 -148 -13z m181 -20 c0 -5 -2 -10 -4 -10 -3
0 -8 5 -11 10 -3 6 -1 10 4 10 6 0 11 -4 11 -10z m-315 -10 c-3 -5 -16 -15
-28 -21 -19 -9 -19 -8 3 10 28 23 34 26 25 11z m312 -87 c-3 -10 -5 -2 -5 17
0 19 2 27 5 18 2 -10 2 -26 0 -35z m-577 -3 c-8 -5 -24 -9 -35 -9 -16 1 -16 2
5 9 35 11 48 11 30 0z m75 -8 c-3 -3 -11 0 -18 7 -9 10 -8 11 6 5 10 -3 15 -9
12 -12z"/>
<path d="M1734 2119 c-3 -6 -1 -16 5 -22 9 -9 14 -8 21 3 9 15 4 30 -10 30 -5
0 -12 -5 -16 -11z"/>
<path d="M3320 2110 c0 -11 7 -20 15 -20 8 0 15 9 15 20 0 11 -7 20 -15 20 -8
0 -15 -9 -15 -20z"/>
<path d="M2012 2065 c0 -16 2 -22 5 -12 2 9 2 23 0 30 -3 6 -5 -1 -5 -18z"/>
<path d="M5770 2075 c0 -8 9 -15 20 -15 11 0 20 7 20 15 0 8 -9 15 -20 15 -11
0 -20 -7 -20 -15z"/>
<path d="M6631 2034 c0 -11 3 -14 6 -6 3 7 2 16 -1 19 -3 4 -6 -2 -5 -13z"/>
<path d="M6751 1974 c-7 -41 -11 -78 -8 -80 2 -3 10 30 16 72 7 41 11 78 8 80
-2 3 -10 -30 -16 -72z"/>
<path d="M1732 2018 c6 -18 28 -21 28 -4 0 9 -7 16 -16 16 -9 0 -14 -5 -12
-12z"/>
<path d="M3320 2015 c0 -8 7 -15 15 -15 8 0 15 7 15 15 0 8 -7 15 -15 15 -8 0
-15 -7 -15 -15z"/>
<path d="M5777 1994 c-13 -13 -7 -24 14 -24 11 0 19 5 17 12 -5 14 -22 21 -31
12z"/>
<path d="M6622 1980 c0 -14 2 -19 5 -12 2 6 2 18 0 25 -3 6 -5 1 -5 -13z"/>
<path d="M1730 1921 c0 -15 6 -21 21 -21 25 0 22 33 -4 38 -12 2 -17 -3 -17
-17z"/>
<path d="M3320 1920 c0 -11 7 -20 15 -20 8 0 15 9 15 20 0 11 -7 20 -15 20 -8
0 -15 -9 -15 -20z"/>
<path d="M1937 1903 c-4 -3 -7 -12 -7 -20 0 -10 25 -13 110 -13 103 0 110 1
110 20 0 19 -7 20 -103 20 -57 0 -107 -3 -110 -7z"/>
<path d="M2385 1900 c-16 -26 14 -30 201 -30 187 0 194 1 194 20 0 19 -7 20
-194 20 -119 0 -197 -4 -201 -10z"/>
<path d="M2990 1890 c0 -16 7 -20 35 -20 28 0 35 4 35 20 0 16 -7 20 -35 20
-28 0 -35 -4 -35 -20z"/>
<path d="M5268 1904 c-4 -3 -4 -12 -1 -20 4 -11 27 -14 95 -14 80 0 89 2 86
18 -3 14 -17 17 -89 20 -47 1 -88 0 -91 -4z"/>
<path d="M5567 1903 c-4 -3 -7 -12 -7 -20 0 -9 17 -13 60 -13 53 0 60 2 60 20
0 18 -7 20 -53 20 -30 0 -57 -3 -60 -7z"/>
<path d="M5770 1891 c0 -15 6 -21 21 -21 25 0 22 33 -4 38 -12 2 -17 -3 -17
-17z"/>
<path d="M1730 1820 c0 -13 7 -20 20 -20 13 0 20 7 20 20 0 13 -7 20 -20 20
-13 0 -20 -7 -20 -20z"/>
<path d="M3320 1825 c0 -8 7 -15 15 -15 8 0 15 7 15 15 0 8 -7 15 -15 15 -8 0
-15 -7 -15 -15z"/>
<path d="M1930 1815 c0 -12 19 -15 110 -15 91 0 110 3 110 15 0 12 -19 15
-110 15 -91 0 -110 -3 -110 -15z"/>
<path d="M2380 1815 c0 -13 29 -15 200 -15 171 0 200 2 200 15 0 13 -29 15
-200 15 -171 0 -200 -2 -200 -15z"/>
<path d="M5770 1795 c0 -8 9 -15 20 -15 11 0 20 7 20 15 0 8 -9 15 -20 15 -11
0 -20 -7 -20 -15z"/>
<path d="M6313 1753 c-7 -2 -13 -11 -13 -19 0 -12 40 -14 245 -14 203 0 245 2
245 14 0 8 -7 17 -16 20 -19 7 -443 7 -461 -1z"/>
<path d="M1730 1730 c0 -13 7 -20 20 -20 13 0 20 7 20 20 0 13 -7 20 -20 20
-13 0 -20 -7 -20 -20z"/>
<path d="M1930 1734 c0 -12 10 -14 47 -12 66 4 70 28 4 28 -39 0 -51 -4 -51
-16z"/>
<path d="M2382 1738 c3 -9 33 -14 91 -16 73 -2 87 0 87 13 0 12 -16 15 -91 15
-68 0 -90 -3 -87 -12z"/>
<path d="M2990 1735 c0 -10 11 -15 35 -15 24 0 35 5 35 15 0 10 -11 15 -35 15
-24 0 -35 -5 -35 -15z"/>
<path d="M3320 1725 c0 -8 7 -15 15 -15 8 0 15 7 15 15 0 8 -7 15 -15 15 -8 0
-15 -7 -15 -15z"/>
<path d="M5770 1710 c0 -5 9 -10 20 -10 11 0 20 5 20 10 0 6 -9 10 -20 10 -11
0 -20 -4 -20 -10z"/>
<path d="M6300 1666 c0 -8 7 -17 16 -20 20 -8 438 -8 458 0 9 3 16 12 16 20 0
12 -42 14 -245 14 -203 0 -245 -2 -245 -14z"/>
<path d="M1730 1629 c0 -25 33 -22 38 4 2 12 -3 17 -17 17 -15 0 -21 -6 -21
-21z"/>
<path d="M3320 1630 c0 -11 7 -20 15 -20 8 0 15 9 15 20 0 11 -7 20 -15 20 -8
0 -15 -9 -15 -20z"/>
<path d="M6313 1603 c-7 -2 -13 -11 -13 -19 0 -12 40 -14 245 -14 203 0 245 2
245 14 0 8 -7 17 -16 20 -19 7 -443 7 -461 -1z"/>
<path d="M1730 1535 c0 -8 7 -15 15 -15 8 0 15 7 15 15 0 8 -7 15 -15 15 -8 0
-15 -7 -15 -15z"/>
<path d="M3320 1540 c0 -6 -77 -10 -210 -10 l-210 0 0 -435 0 -435 543 2 542
3 3 433 2 432 -320 0 c-207 0 -320 4 -320 10 0 6 -7 10 -15 10 -8 0 -15 -4
-15 -10z m635 -445 l0 -400 -512 -3 -513 -2 0 405 0 405 513 -2 512 -3 0 -400z"/>
<path d="M2950 1440 c0 -11 7 -20 15 -20 8 0 15 9 15 20 0 11 -7 20 -15 20 -8
0 -15 -9 -15 -20z"/>
<path d="M3040 1440 c0 -11 7 -20 15 -20 8 0 15 9 15 20 0 11 -7 20 -15 20 -8
0 -15 -9 -15 -20z"/>
<path d="M3137 1454 c-14 -15 -6 -34 14 -34 14 0 19 5 17 17 -3 18 -20 27 -31
17z"/>
<path d="M3230 1440 c0 -11 7 -20 15 -20 8 0 15 9 15 20 0 11 -7 20 -15 20 -8
0 -15 -9 -15 -20z"/>
<path d="M3320 1440 c0 -11 7 -20 15 -20 8 0 15 9 15 20 0 11 -7 20 -15 20 -8
0 -15 -9 -15 -20z"/>
<path d="M3030 1095 l0 -245 395 0 395 0 0 245 0 245 -395 0 -395 0 0 -245z
m148 154 l-3 -62 -55 0 -55 0 -3 48 c-5 70 -1 75 63 75 l56 0 -3 -61z m150 0
l-3 -62 -55 0 -55 0 -3 48 c-5 70 -1 75 63 75 l56 0 -3 -61z m152 -1 l0 -63
-58 1 -57 0 -3 48 c-5 71 -1 76 63 76 l55 0 0 -62z m150 0 l0 -63 -55 0 -55 0
0 63 0 62 55 0 55 0 0 -62z m155 -2 l0 -59 -55 0 -55 0 -3 62 -3 62 58 -3 58
-3 0 -59z m-610 -151 l0 -60 -55 0 -55 0 -3 49 c-5 72 -1 78 60 74 l53 -3 0
-60z m153 3 l-3 -63 -55 0 -55 0 -3 49 c-5 71 -1 76 63 76 l56 0 -3 -62z m152
-3 l0 -65 -57 3 -58 2 -3 49 c-5 71 -1 76 63 76 l55 0 0 -65z m150 0 l0 -65
-55 0 -55 0 0 65 0 65 55 0 55 0 0 -65z m155 0 l0 -60 -57 -3 -58 -3 0 66 0
66 58 -3 57 -3 0 -60z m-607 -153 l-3 -57 -55 0 -55 0 -3 49 c-5 69 -2 71 62
68 l57 -4 -3 -56z m152 -3 l0 -60 -57 3 -58 3 -3 49 c-5 69 -2 71 62 68 l56
-4 0 -59z m150 1 l0 -61 -57 3 -58 3 -3 58 -3 57 61 0 60 0 0 -60z m150 0 l0
-60 -55 0 -55 0 0 60 0 60 55 0 55 0 0 -60z m158 3 l-3 -58 -57 -1 -58 -2 0
59 0 59 60 0 61 0 -3 -57z"/>
<path d="M5240 1450 c0 -15 -7 -20 -25 -20 l-25 0 0 -110 0 -110 525 0 525 1
0 109 0 110 -30 0 c-23 0 -30 4 -30 20 0 11 -7 20 -15 20 -8 0 -15 -9 -15 -20
0 -17 -7 -20 -40 -20 -33 0 -40 3 -40 20 0 11 -6 20 -14 20 -7 0 -16 -9 -19
-20 -4 -15 -14 -20 -41 -20 -29 0 -36 4 -36 20 0 13 -7 20 -20 20 -14 0 -20
-6 -18 -17 2 -15 -5 -19 -39 -21 -38 -3 -43 -1 -43 17 0 12 -7 21 -15 21 -8 0
-15 -9 -15 -20 0 -17 -7 -20 -40 -20 -33 0 -40 3 -40 20 0 11 -7 20 -15 20 -8
0 -15 -9 -15 -20 0 -17 -7 -20 -40 -20 -33 0 -40 3 -40 20 0 13 -7 20 -20 20
-13 0 -20 -7 -20 -20 0 -17 -7 -20 -40 -20 -33 0 -40 3 -40 20 0 11 -7 20 -15
20 -8 0 -15 -9 -15 -20 0 -17 -7 -20 -40 -20 -33 0 -40 3 -40 20 0 11 -6 20
-14 20 -7 0 -16 -9 -19 -20 -4 -15 -14 -20 -41 -20 -29 0 -36 4 -36 20 0 13
-7 20 -20 20 -13 0 -20 -7 -20 -20z m977 -117 c-3 -10 -5 -4 -5 12 0 17 2 24
5 18 2 -7 2 -21 0 -30z m-1000 -55 c-2 -18 -4 -6 -4 27 0 33 2 48 4 33 2 -15
2 -42 0 -60z m756 -45 c-138 -2 -368 -2 -510 0 -142 1 -28 2 252 2 281 0 397
-1 258 -2z"/>
<path d="M1735 1450 c-7 -12 2 -30 16 -30 5 0 9 9 9 20 0 21 -15 27 -25 10z"/>
<path d="M1830 1440 c0 -11 7 -20 15 -20 8 0 15 9 15 20 0 11 -7 20 -15 20 -8
0 -15 -9 -15 -20z"/>
<path d="M1927 1453 c-13 -12 -7 -33 8 -33 8 0 15 9 15 20 0 20 -11 26 -23 13z"/>
<path d="M2023 1453 c-18 -6 -16 -33 1 -33 19 0 31 19 20 30 -5 4 -15 5 -21 3z"/>
<path d="M2110 1441 c0 -12 6 -21 16 -21 9 0 14 7 12 17 -5 25 -28 28 -28 4z"/>
<path d="M2213 1453 c-18 -7 -16 -33 2 -33 8 0 15 9 15 20 0 11 -1 20 -2 19
-2 0 -9 -3 -15 -6z"/>
<path d="M2297 1454 c-14 -15 -6 -34 14 -34 14 0 19 5 17 17 -3 18 -20 27 -31
17z"/>
<path d="M2387 1453 c-14 -13 -6 -33 13 -33 13 0 20 7 20 20 0 19 -20 27 -33
13z"/>
<path d="M2480 1440 c0 -11 7 -20 15 -20 8 0 15 9 15 20 0 11 -7 20 -15 20 -8
0 -15 -9 -15 -20z"/>
<path d="M2570 1440 c0 -13 7 -20 20 -20 13 0 20 7 20 20 0 13 -7 20 -20 20
-13 0 -20 -7 -20 -20z"/>
<path d="M2670 1440 c0 -11 7 -20 15 -20 8 0 15 9 15 20 0 11 -7 20 -15 20 -8
0 -15 -9 -15 -20z"/>
<path d="M2773 1453 c-18 -7 -16 -33 2 -33 8 0 15 9 15 20 0 11 -1 20 -2 19
-2 0 -9 -3 -15 -6z"/>
<path d="M2854 1449 c-8 -14 11 -33 25 -25 11 7 4 36 -9 36 -5 0 -12 -5 -16
-11z"/>
<path d="M6499 1445 c-84 -45 -47 -175 50 -175 47 0 77 21 91 65 28 84 -61
153 -141 110z m97 -50 c20 -31 15 -53 -17 -77 -23 -17 -30 -18 -50 -8 -29 16
-39 29 -39 54 0 53 76 76 106 31z"/>
<path d="M2139 1277 c-38 -25 -79 -97 -79 -139 0 -77 76 -168 142 -168 38 0
37 26 -3 34 -72 14 -126 111 -99 176 17 40 75 90 105 90 16 0 25 6 25 15 0 23
-52 19 -91 -8z"/>
<path d="M6530 1191 c0 -24 34 -22 38 2 2 12 -3 17 -17 17 -14 0 -21 -6 -21
-19z"/>
<path d="M6530 1100 c0 -13 7 -20 20 -20 13 0 20 7 20 20 0 13 -7 20 -20 20
-13 0 -20 -7 -20 -20z"/>
<path d="M5678 1007 c-27 -31 -43 -56 -37 -61 5 -6 16 -3 27 7 10 9 22 17 25
17 4 0 7 -49 7 -110 0 -91 3 -110 15 -110 13 0 15 24 15 155 0 85 -1 155 -2
155 -2 0 -24 -24 -50 -53z"/>
<path d="M6953 1047 c-3 -5 1 -13 8 -18 12 -8 12 -10 0 -18 -19 -12 -4 -33 19
-26 10 3 21 1 25 -5 5 -8 11 -8 21 1 11 9 11 15 3 25 -9 11 -8 18 1 29 14 17
16 16 -33 19 -21 2 -40 -1 -44 -7z"/>
<path d="M6530 1010 c0 -13 7 -20 20 -20 13 0 20 7 20 20 0 13 -7 20 -20 20
-13 0 -20 -7 -20 -20z"/>
<path d="M6530 923 c0 -7 7 -13 15 -13 8 0 15 6 15 13 0 8 -7 14 -15 14 -8 0
-15 -6 -15 -14z"/>
<path d="M4185 910 c-84 -34 -100 -167 -26 -219 87 -62 207 -2 205 103 -2 93
-93 152 -179 116z m112 -42 c9 -7 22 -28 30 -45 19 -47 -3 -98 -52 -119 -45
-18 -78 -10 -110 28 -42 49 -28 113 30 147 24 13 80 7 102 -11z"/>
<path d="M6543 843 c-18 -7 -16 -30 2 -30 8 0 15 9 15 19 0 10 -1 18 -2 17 -2
0 -9 -3 -15 -6z"/>
<path d="M6250 825 c0 -8 2 -15 4 -15 2 0 6 7 10 15 3 8 1 15 -4 15 -6 0 -10
-7 -10 -15z"/>
<path d="M6330 824 c0 -9 7 -14 17 -12 25 5 28 28 4 28 -12 0 -21 -6 -21 -16z"/>
<path d="M6430 825 c0 -8 7 -15 15 -15 8 0 15 7 15 15 0 8 -7 15 -15 15 -8 0
-15 -7 -15 -15z"/>
<path d="M4430 795 c0 -8 9 -15 20 -15 13 0 18 5 14 15 -4 8 -12 15 -20 15 -8
0 -14 -7 -14 -15z"/>
<path d="M4530 795 c0 -8 7 -15 15 -15 8 0 15 7 15 15 0 8 -7 15 -15 15 -8 0
-15 -7 -15 -15z"/>
<path d="M4630 795 c0 -8 7 -15 15 -15 8 0 15 7 15 15 0 8 -7 15 -15 15 -8 0
-15 -7 -15 -15z"/>
<path d="M4720 795 c0 -8 9 -15 20 -15 11 0 20 7 20 15 0 8 -9 15 -20 15 -11
0 -20 -7 -20 -15z"/>
<path d="M4820 795 c0 -8 7 -15 15 -15 8 0 15 7 15 15 0 8 -7 15 -15 15 -8 0
-15 -7 -15 -15z"/>
<path d="M4920 795 c0 -8 7 -15 15 -15 8 0 15 7 15 15 0 8 -7 15 -15 15 -8 0
-15 -7 -15 -15z"/>
<path d="M5020 795 c0 -8 7 -15 15 -15 8 0 15 7 15 15 0 8 -7 15 -15 15 -8 0
-15 -7 -15 -15z"/>
<path d="M2485 730 c-3 -5 1 -10 10 -10 9 0 13 5 10 10 -3 6 -8 10 -10 10 -2
0 -7 -4 -10 -10z"/>
<path d="M5020 705 c0 -8 7 -15 15 -15 8 0 15 7 15 15 0 8 -7 15 -15 15 -8 0
-15 -7 -15 -15z"/>
<path d="M2480 655 c0 -8 7 -15 15 -15 8 0 15 7 15 15 0 8 -7 15 -15 15 -8 0
-15 -7 -15 -15z"/>
<path d="M5020 615 c0 -8 7 -15 15 -15 8 0 15 7 15 15 0 8 -7 15 -15 15 -8 0
-15 -7 -15 -15z"/>
<path d="M2480 575 c0 -8 7 -15 15 -15 8 0 15 7 15 15 0 8 -7 15 -15 15 -8 0
-15 -7 -15 -15z"/>
<path d="M5708 583 c7 -3 16 -2 19 1 4 3 -2 6 -13 5 -11 0 -14 -3 -6 -6z"/>
<path d="M3300 490 l0 -70 750 0 750 0 0 70 0 70 -750 0 -750 0 0 -70z m1118
43 c-203 -2 -533 -2 -735 0 -203 1 -37 2 367 2 404 0 570 -1 368 -2z"/>
<path d="M5015 540 c-3 -5 3 -10 14 -10 12 0 21 5 21 10 0 6 -6 10 -14 10 -8
0 -18 -4 -21 -10z"/>
<path d="M6419 543 c-27 -6 -44 -49 -31 -77 15 -33 47 -42 77 -22 53 35 17
113 -46 99z m36 -53 c0 -8 -8 -16 -17 -18 -13 -2 -18 3 -18 18 0 15 5 20 18
18 9 -2 17 -10 17 -18z"/>
<path d="M4920 490 c0 -28 2 -30 28 -24 15 4 36 10 47 14 19 8 19 8 -5 18 -68
26 -70 26 -70 -8z"/>
<path d="M5697 513 c-13 -12 -7 -23 13 -23 11 0 20 7 20 15 0 15 -21 21 -33 8z"/>
<path d="M2480 485 c0 -8 7 -15 15 -15 8 0 15 7 15 15 0 8 -7 15 -15 15 -8 0
-15 -7 -15 -15z"/>
<path d="M2573 488 c2 -7 10 -13 17 -13 7 0 15 6 18 13 2 7 -5 12 -18 12 -13
0 -20 -5 -17 -12z"/>
<path d="M2670 485 c0 -8 7 -15 15 -15 8 0 15 7 15 15 0 8 -7 15 -15 15 -8 0
-15 -7 -15 -15z"/>
<path d="M2762 488 c6 -18 25 -20 31 -3 5 10 0 15 -14 15 -12 0 -19 -5 -17
-12z"/>
<path d="M2860 485 c0 -8 7 -15 15 -15 8 0 15 7 15 15 0 8 -7 15 -15 15 -8 0
-15 -7 -15 -15z"/>
<path d="M2952 488 c6 -18 25 -20 31 -3 5 10 0 15 -14 15 -12 0 -19 -5 -17
-12z"/>
<path d="M3050 485 c0 -8 7 -15 15 -15 8 0 15 7 15 15 0 8 -7 15 -15 15 -8 0
-15 -7 -15 -15z"/>
<path d="M3140 485 c0 -8 6 -15 14 -15 8 0 16 7 20 15 4 10 -1 15 -14 15 -11
0 -20 -7 -20 -15z"/>
<path d="M3241 484 c0 -11 3 -14 6 -6 3 7 2 16 -1 19 -3 4 -6 -2 -5 -13z"/>
<path d="M5700 410 c0 -11 7 -20 15 -20 8 0 15 9 15 20 0 11 -7 20 -15 20 -8
0 -15 -9 -15 -20z"/>
<path d="M5700 315 c0 -8 7 -15 15 -15 8 0 15 7 15 15 0 8 -7 15 -15 15 -8 0
-15 -7 -15 -15z"/>
<path d="M3750 220 c0 -20 7 -20 750 -20 743 0 750 0 750 20 0 20 -7 20 -750
20 -743 0 -750 0 -750 -20z"/>
<path d="M5300 225 c0 -8 4 -15 10 -15 5 0 7 7 4 15 -4 8 -8 15 -10 15 -2 0
-4 -7 -4 -15z"/>
<path d="M5383 225 c0 -8 9 -15 19 -15 10 0 18 7 18 15 0 8 -8 15 -18 15 -10
0 -19 -7 -19 -15z"/>
<path d="M5490 225 c0 -8 7 -15 15 -15 8 0 15 7 15 15 0 8 -7 15 -15 15 -8 0
-15 -7 -15 -15z"/>
<path d="M5590 225 c0 -8 9 -15 20 -15 11 0 20 7 20 15 0 8 -9 15 -20 15 -11
0 -20 -7 -20 -15z"/>
<path d="M5700 225 c0 -8 7 -15 15 -15 8 0 15 7 15 15 0 8 -7 15 -15 15 -8 0
-15 -7 -15 -15z"/>
</g>
</svg>
