<?xml version="1.0" standalone="no"?>
<!DOCTYPE svg PUBLIC "-//W3C//DTD SVG 20010904//EN"
 "http://www.w3.org/TR/2001/REC-SVG-20010904/DTD/svg10.dtd">
<svg version="1.0" xmlns="http://www.w3.org/2000/svg"
 width="512.000000pt" height="512.000000pt" viewBox="0 0 512.000000 512.000000"
 preserveAspectRatio="xMidYMid meet">

<g transform="translate(0.000000,512.000000) scale(0.100000,-0.100000)"
fill="#000000" stroke="none">
<path d="M1223 4416 c-102 -32 -176 -97 -222 -196 l-26 -55 -3 -922 c-2 -914
-2 -923 18 -943 12 -12 33 -20 54 -20 70 0 66 -56 66 934 0 674 3 899 12 930
16 53 81 118 134 134 32 9 334 12 1304 12 970 0 1272 -3 1304 -12 53 -16 118
-81 134 -134 9 -32 12 -396 12 -1605 0 -1501 -1 -1566 -19 -1605 -31 -68 -108
-112 -174 -100 -18 3 -289 135 -603 293 l-571 288 -83 0 -83 0 -567 -287
c-315 -160 -585 -290 -607 -294 -26 -4 -52 -1 -78 10 -52 22 -74 43 -96 91
-16 35 -19 68 -19 266 0 213 -1 226 -20 247 -27 29 -71 28 -99 -2 -22 -23 -22
-26 -19 -272 3 -229 5 -253 24 -295 63 -135 216 -214 350 -180 26 7 300 139
608 293 486 244 567 281 606 281 39 0 123 -39 623 -289 l578 -289 77 0 c64 0
87 5 134 28 65 32 121 89 152 156 l21 46 0 1620 0 1620 -33 67 c-38 77 -92
130 -171 167 l-56 26 -1310 2 c-1064 1 -1318 -1 -1352 -11z"/>
<path d="M2493 3660 c-27 -16 -52 -58 -134 -222 -56 -112 -102 -204 -103 -205
-1 -1 -96 -16 -212 -33 -115 -17 -224 -37 -242 -45 -59 -27 -86 -97 -62 -161
6 -15 83 -97 171 -183 l160 -156 -35 -205 c-45 -258 -45 -270 -3 -316 26 -29
42 -37 79 -41 43 -5 58 1 247 101 l202 106 200 -106 c190 -100 203 -106 247
-101 37 4 53 12 79 41 42 46 42 58 -3 316 l-35 205 160 156 c88 86 165 168
171 183 23 61 -2 131 -58 160 -15 8 -124 28 -242 45 -117 17 -214 32 -216 34
-1 1 -47 93 -103 205 -110 219 -129 242 -201 242 -19 0 -50 -9 -67 -20z m162
-331 c50 -99 102 -191 117 -206 24 -22 46 -28 230 -55 111 -16 209 -31 216
-34 7 -2 -53 -68 -142 -155 -129 -125 -157 -157 -162 -187 -5 -25 4 -103 26
-235 18 -108 31 -200 27 -203 -3 -3 -83 36 -179 87 -233 125 -222 125 -456 0
-95 -51 -176 -90 -179 -87 -3 3 9 95 27 203 22 132 31 210 27 234 -6 30 -35
63 -162 188 -86 84 -150 153 -143 156 7 2 83 13 168 25 227 32 251 37 280 65
14 13 65 105 115 204 49 100 92 181 95 181 3 0 46 -81 95 -181z"/>
<path d="M992 1947 c-29 -31 -30 -99 -2 -127 28 -28 84 -27 104 2 23 33 21
103 -4 128 -27 27 -71 26 -98 -3z"/>
</g>
</svg>
