<?xml version="1.0" standalone="no"?>
<!DOCTYPE svg PUBLIC "-//W3C//DTD SVG 20010904//EN"
 "http://www.w3.org/TR/2001/REC-SVG-20010904/DTD/svg10.dtd">
<svg version="1.0" xmlns="http://www.w3.org/2000/svg"
 width="555.000000pt" height="201.000000pt" viewBox="0 0 555.000000 201.000000"
 preserveAspectRatio="xMidYMid meet">

<g transform="translate(0.000000,201.000000) scale(0.100000,-0.100000)"
fill="#000000" stroke="none">
<path d="M993 1548 l-103 -51 0 -128 0 -129 -100 -50 -100 -50 0 -130 0 -130
-100 -50 -100 -50 0 -135 0 -135 106 -53 105 -53 99 51 99 50 101 -50 102 -51
99 51 99 50 99 -50 100 -51 105 53 106 53 0 135 0 135 -100 50 -100 50 0 130
0 130 -100 50 -100 50 0 128 0 128 -100 52 c-56 28 -104 52 -108 51 -4 0 -53
-23 -109 -51z m12 -120 l85 -42 0 -113 c0 -62 -2 -113 -5 -113 -3 0 -43 19
-90 42 l-85 42 0 113 c0 62 2 113 5 113 3 0 43 -19 90 -42z m285 -70 l0 -113
-79 -42 c-43 -24 -84 -43 -90 -43 -7 0 -11 36 -11 113 l0 113 83 41 c45 23 85
42 90 42 4 1 7 -50 7 -111z m-485 -290 l85 -42 0 -113 c0 -62 -2 -113 -5 -113
-3 0 -43 19 -90 42 l-85 42 0 113 c0 62 2 113 5 113 3 0 43 -19 90 -42z m285
-73 l0 -115 -80 -40 c-44 -22 -84 -40 -90 -40 -6 0 -10 43 -10 113 l0 113 83
41 c45 23 85 42 90 42 4 1 7 -51 7 -114z m115 73 l85 -42 0 -113 c0 -70 -4
-113 -10 -113 -6 0 -46 18 -90 40 l-80 40 0 115 c0 63 2 115 5 115 3 0 43 -19
90 -42z m285 -71 l0 -113 -85 -42 c-47 -23 -87 -42 -90 -42 -3 0 -5 51 -5 113
l0 113 83 41 c45 23 85 42 90 42 4 1 7 -50 7 -112z m-880 -287 l80 -40 0 -115
c0 -63 -2 -115 -5 -115 -3 0 -43 19 -90 42 l-85 42 0 113 c0 70 4 113 10 113
6 0 46 -18 90 -40z m280 -75 l0 -115 -80 -40 c-44 -22 -84 -40 -90 -40 -6 0
-10 43 -10 113 l0 113 83 41 c45 23 85 42 90 42 4 1 7 -51 7 -114z m120 75
l80 -40 0 -115 c0 -63 -2 -115 -5 -115 -3 0 -43 19 -90 42 l-85 42 0 113 c0
70 4 113 10 113 6 0 46 -18 90 -40z m280 -72 l0 -113 -79 -42 c-43 -24 -84
-43 -90 -43 -7 0 -11 36 -11 115 l0 115 78 39 c42 22 83 40 90 41 9 0 12 -29
12 -112z m115 70 l85 -42 0 -113 c0 -70 -4 -113 -10 -113 -6 0 -46 18 -90 40
l-80 40 0 115 c0 63 2 115 5 115 3 0 43 -19 90 -42z m285 -71 l0 -113 -85 -42
c-47 -23 -87 -42 -90 -42 -3 0 -5 52 -5 115 l0 115 78 39 c42 22 83 40 90 41
9 0 12 -29 12 -113z"/>
<path d="M4878 1423 c-16 -4 -18 -18 -18 -115 l0 -110 -27 7 c-35 8 -142 8
-179 -1 -81 -19 -148 -77 -186 -159 -19 -42 -23 -67 -23 -150 0 -91 3 -105 30
-160 35 -70 94 -115 183 -141 113 -33 283 -2 344 63 l23 25 0 355 0 355 -24
19 c-22 18 -79 24 -123 12z m-37 -353 c18 -10 19 -23 19 -175 l0 -163 -36 -12
c-67 -22 -150 1 -188 53 -30 40 -35 177 -9 227 27 52 75 80 140 80 30 0 63 -5
74 -10z"/>
<path d="M1985 1373 c-48 -11 -86 -26 -100 -40 -13 -12 -15 -65 -15 -344 l0
-330 24 -24 c37 -37 98 -50 246 -50 165 0 221 16 286 80 33 34 44 54 54 99 19
94 -9 167 -85 215 l-43 27 35 23 c87 57 96 198 17 275 -55 54 -140 76 -282 75
-64 -1 -126 -3 -137 -6z m250 -137 c59 -25 74 -93 31 -143 -23 -27 -29 -28
-125 -31 l-101 -4 0 89 c0 49 3 93 7 96 12 13 153 7 188 -7z m8 -317 c46 -12
70 -47 70 -100 0 -30 -7 -47 -24 -65 -30 -30 -115 -47 -191 -38 l-58 6 0 104
0 104 83 0 c45 0 99 -5 120 -11z"/>
<path d="M2838 1209 c-97 -14 -170 -65 -216 -153 -24 -46 -27 -61 -27 -156 0
-121 17 -171 79 -233 66 -67 108 -82 221 -82 109 0 157 16 218 74 69 63 104
187 86 299 -13 82 -36 128 -91 178 -70 65 -157 88 -270 73z m147 -162 c55 -55
71 -159 37 -246 -24 -62 -60 -86 -128 -85 -57 0 -92 22 -119 74 -32 63 -24
186 16 242 26 36 50 47 113 47 41 1 52 -3 81 -32z"/>
<path d="M3495 1209 c-68 -8 -112 -23 -137 -46 -21 -19 -24 -72 -5 -97 13 -17
16 -17 63 -1 140 48 264 19 264 -62 0 -13 -1 -23 -2 -23 -2 0 -57 -7 -122 -15
-131 -15 -193 -39 -230 -88 -17 -23 -21 -43 -21 -100 0 -88 22 -124 98 -165
48 -25 61 -27 172 -27 105 0 127 3 173 24 90 40 92 47 92 245 0 94 -5 188 -11
209 -30 110 -161 167 -334 146z m185 -418 c0 -80 -1 -81 -109 -81 -74 0 -111
23 -111 70 0 50 57 75 183 79 l37 1 0 -69z"/>
<path d="M4209 1210 c-84 -10 -157 -40 -190 -78 l-29 -33 0 -234 c0 -222 1
-236 20 -255 14 -14 33 -20 64 -20 81 0 76 -15 76 236 l0 224 28 12 c15 6 66
13 115 16 81 4 88 6 93 27 21 82 -44 121 -177 105z"/>
</g>
</svg>
