<?xml version="1.0" standalone="no"?>
<!DOCTYPE svg PUBLIC "-//W3C//DTD SVG 20010904//EN"
 "http://www.w3.org/TR/2001/REC-SVG-20010904/DTD/svg10.dtd">
<svg version="1.0" xmlns="http://www.w3.org/2000/svg"
 width="512.000000pt" height="512.000000pt" viewBox="0 0 512.000000 512.000000"
 preserveAspectRatio="xMidYMid meet">

<g transform="translate(0.000000,512.000000) scale(0.100000,-0.100000)"
fill="#000000" stroke="none">
<path d="M3481 5098 c-62 -23 -127 -84 -156 -143 -27 -56 -32 -162 -10 -227
l16 -51 -97 -98 -98 -99 -1132 -2 -1132 -3 -44 -30 c-28 -20 -52 -49 -70 -84
-26 -50 -28 -64 -28 -172 l0 -117 -122 -4 c-161 -6 -212 -31 -264 -128 -18
-34 -19 -86 -22 -1250 -2 -856 1 -1223 9 -1241 20 -49 82 -63 117 -26 l22 23
0 1196 c0 821 3 1205 11 1225 5 15 16 31 22 35 7 4 60 8 120 8 l107 0 0 -1660
c0 -1479 2 -1665 16 -1698 19 -47 58 -88 109 -115 l40 -22 1565 -3 c861 -2
1580 0 1599 3 25 5 56 27 109 78 l73 72 -3 -189 c-3 -184 -4 -188 -27 -207
-23 -19 -67 -19 -1856 -19 -1789 0 -1833 0 -1856 19 l-24 19 -5 492 c-5 472
-6 492 -24 506 -28 20 -69 17 -97 -5 l-24 -19 -3 -478 c-3 -531 -1 -550 60
-613 18 -19 51 -42 73 -52 38 -18 120 -19 1901 -19 l1862 0 53 28 c39 20 62
41 84 77 l30 48 3 286 3 286 204 206 205 205 0 1066 0 1067 -23 27 c-28 33
-76 37 -107 9 -20 -18 -20 -29 -20 -1040 l0 -1022 -157 -6 c-87 -4 -202 -7
-256 -7 -77 0 -106 -4 -136 -19 -50 -26 -97 -81 -110 -128 -6 -22 -11 -141
-11 -275 l0 -238 -1528 0 c-1304 0 -1531 2 -1548 14 -19 14 -19 46 -22 1860
-2 1837 -2 1846 18 1866 20 20 32 20 1052 20 l1033 0 -148 -148 c-161 -161
-171 -179 -122 -227 49 -50 61 -42 280 175 l201 200 706 0 707 0 20 -26 c20
-26 21 -38 21 -353 0 -371 0 -371 70 -371 30 0 43 6 60 27 21 26 21 33 18 372
l-3 346 -28 48 c-15 26 -47 60 -69 75 l-42 27 -653 5 -654 5 45 44 44 43 52
-17 c68 -23 168 -17 227 13 54 28 107 83 135 141 33 68 31 178 -5 247 -70 136
-225 196 -366 142z m104 -169 c26 -49 30 -122 11 -173 -24 -62 -35 -69 -74
-46 -87 53 -95 167 -16 229 37 29 61 26 79 -10z m945 -3852 c0 -1 -90 -92
-200 -202 l-200 -200 0 183 c0 240 -17 222 220 222 99 0 180 -1 180 -3z"/>
<path d="M1380 3340 c-25 -25 -26 -71 -1 -101 l19 -24 1367 0 1367 0 19 24
c26 32 24 73 -4 99 l-23 22 -1362 0 c-1349 0 -1362 0 -1382 -20z"/>
<path d="M1382 2627 c-31 -33 -29 -80 4 -106 l27 -21 1354 0 1354 0 24 25 c32
31 32 69 0 100 l-24 25 -1359 0 -1359 0 -21 -23z"/>
<path d="M1385 1915 c-32 -31 -33 -74 -2 -103 l23 -22 1360 0 1361 0 21 23
c29 31 28 72 -3 102 l-24 25 -1356 0 -1356 0 -24 -25z"/>
</g>
</svg>
